<?xml version="1.0" encoding="UTF-8" standalone="no"?>
<svg
   xmlns:dc="http://purl.org/dc/elements/1.1/"
   xmlns:cc="http://creativecommons.org/ns#"
   xmlns:rdf="http://www.w3.org/1999/02/22-rdf-syntax-ns#"
   xmlns:svg="http://www.w3.org/2000/svg"
   xmlns="http://www.w3.org/2000/svg"
   xmlns:sodipodi="http://sodipodi.sourceforge.net/DTD/sodipodi-0.dtd"
   xmlns:inkscape="http://www.inkscape.org/namespaces/inkscape"
   width="24"
   height="24"
   version="1.1"
   id="svg66"
   sodipodi:docname="method-draw-image.svg"
   inkscape:version="1.0.2 (e86c870, 2021-01-15)">
  <metadata
     id="metadata72">
    <rdf:RDF>
      <cc:Work
         rdf:about="">
        <dc:format>image/svg+xml</dc:format>
        <dc:type
           rdf:resource="http://purl.org/dc/dcmitype/StillImage" />
        <dc:title></dc:title>
      </cc:Work>
    </rdf:RDF>
  </metadata>
  <defs
     id="defs70" />
  <sodipodi:namedview
     pagecolor="#ffffff"
     bordercolor="#666666"
     borderopacity="1"
     objecttolerance="10"
     gridtolerance="10"
     guidetolerance="10"
     inkscape:pageopacity="0"
     inkscape:pageshadow="2"
     inkscape:window-width="1440"
     inkscape:window-height="863"
     id="namedview68"
     showgrid="false"
     inkscape:zoom="28"
     inkscape:cx="12"
     inkscape:cy="15.571479"
     inkscape:window-x="0"
     inkscape:window-y="180"
     inkscape:window-maximized="1"
     inkscape:current-layer="g64" />
  <g
     id="g64">
    <title
       id="title60">Layer 1</title>
    <path
       id="svg_1"
       d="m17,19l4,0l0,2l-4,0l0,-2zm4,-9l0,2l-5,0l0,10l5,0l0,2l-18,0l0,-14l3,0l0,-4c0,-3.313 2.687,-6 6,-6s6,2.687 6,6l0,4l3,0zm-5,0l0,-4c0,-2.206 -1.795,-4 -4,-4s-4,1.794 -4,4l0,4l8,0zm1,8l4,0l0,-2l-4,0l0,2zm0,-3l4,0l0,-2l-4,0l0,2z" />
    <rect
       style="fill:#ffffff;fill-rule:evenodd"
       id="rect442"
       width="0.86832535"
       height="9.3862305"
       x="9.0506353"
       y="12.388079" />
    <rect
       style="fill:#ffffff;fill-rule:evenodd"
       id="rect442-9"
       width="0.86832535"
       height="9.3862305"
       x="-17.544491"
       y="4.8252344"
       transform="rotate(-89.541018)" />
  </g>
</svg>
